<svg width="44" height="45" viewBox="0 0 44 45" fill="none" xmlns="http://www.w3.org/2000/svg">
<path d="M29.368 37.2647C31.4213 35.1288 32.1255 32.2459 32.2006 29.7211C32.318 25.7736 37.087 22.1496 38.0174 20.6464C39.3092 18.56 36.498 16.6265 33.9413 18.2212C31.1866 19.94 31.0161 21.5266 29.5643 23.0569C28.8231 23.8365 28.1278 23.9797 27.2991 22.3543C26.6916 21.1621 24.2018 10.8314 22.8054 6.17332C22.3276 4.57892 21.326 3.97836 20.03 4.3323C18.562 4.73326 18.1619 5.79317 18.4554 7.30969C19.1856 11.086 20.8919 18.3728 20.5661 18.9622C18.6396 21.7119 16.0538 25.3366 11.1687 22.4768C11.1687 22.4768 6.36827 15.271 5.46837 13.7876C3.91045 11.2197 0.422032 13.2737 1.92968 16.0003C3.34846 18.5694 6.90811 24.5423 7.08648 27.1221C7.24365 29.389 8.91414 36.692 13.3 39.7176C17.6274 42.7029 25.3043 41.4918 29.368 37.2647Z" fill="#FFDC5D"/>
<path d="M15.3941 30.2067C17.7635 33.6367 22.128 31.2972 20.3297 27.8363C18.8678 25.021 15.835 20.3042 15.0105 19.1535C13.3257 16.7979 9.03593 19.2892 10.7038 22.2062C11.7863 24.0996 13.5501 27.5368 15.3941 30.2067Z" fill="#EF9645"/>
<path d="M16.0686 29.4713C18.1047 32.2883 21.0265 30.0332 19.6282 27.1868C18.2296 24.3396 15.6785 20.1784 14.9285 18.9771C13.1756 16.1717 9.88193 19.1571 11.1313 21.2413C12.3806 23.3255 14.5501 27.3706 16.0686 29.4713Z" fill="#FFDC5D"/>
<path d="M19.265 29.539C21.2146 33.9849 26.099 31.6371 25.0772 28.1246C24.1917 25.0789 20.7733 18.9835 20.1694 17.7014C19.0446 15.3163 14.6004 17.1714 15.618 19.9897C16.4442 22.2759 18.224 27.1655 19.265 29.539Z" fill="#EF9645"/>
<path d="M20.1685 29.3134C21.2146 32.1485 25.1067 30.877 24.1516 27.8532C23.1974 24.8291 20.5078 18.6372 19.9359 17.3426C18.9413 15.0891 15.1816 16.7705 16.2508 19.6022C17.1095 21.8747 19.2703 26.8817 20.1685 29.3134Z" fill="#FFDC5D"/>
</svg>
