<svg width="35" height="35" viewBox="0 0 35 35" fill="none" xmlns="http://www.w3.org/2000/svg">
<path d="M17.5 35C17.1166 35 16.7676 34.7857 16.5945 34.4445L14.8249 30.9504L11.8518 33.5027C11.664 33.661 11.4291 33.7455 11.1912 33.7455C11.0604 33.7455 10.9287 33.7209 10.8038 33.6688C10.4508 33.5233 10.208 33.19 10.1805 32.8105L9.8816 28.9015L6.15744 30.1216C6.05421 30.1551 5.94803 30.1718 5.84185 30.1718C5.57641 30.1718 5.31882 30.0676 5.12416 29.8739C4.85478 29.6055 4.75941 29.2044 4.87837 28.8406L6.09747 25.1164L2.19242 24.8205C1.81194 24.79 1.47865 24.5501 1.33216 24.1972C1.18666 23.8423 1.25056 23.4382 1.4993 23.1482L4.04958 20.1751L0.555478 18.4055C0.214326 18.2324 0 17.8815 0 17.5C0 17.1185 0.214326 16.7676 0.555478 16.5945L4.04958 14.8249L1.4993 11.8518C1.25154 11.5618 1.18666 11.1558 1.33216 10.8038C1.47865 10.4508 1.81096 10.208 2.19242 10.1805L6.09747 9.8816L4.87837 6.15744C4.75941 5.79368 4.85478 5.39551 5.12416 5.12416C5.31882 4.93146 5.57641 4.82823 5.84185 4.82823C5.94803 4.82823 6.05421 4.84494 6.15744 4.87837L9.8816 6.09747L10.1805 2.19242C10.209 1.81096 10.4508 1.47865 10.8038 1.33216C10.9287 1.28104 11.0604 1.25548 11.1912 1.25548C11.4291 1.25548 11.664 1.33806 11.8518 1.4993L14.8249 4.04958L16.5945 0.555478C16.7676 0.214326 17.1166 0 17.5 0C17.8815 0 18.2324 0.214326 18.4045 0.555478L20.1761 4.04958L23.1492 1.4993C23.336 1.33806 23.5729 1.25548 23.8088 1.25548C23.9416 1.25548 24.0723 1.28104 24.1982 1.33216C24.5501 1.47865 24.791 1.81096 24.8215 2.19242L25.1194 6.09747L28.8406 4.87837C28.9438 4.84396 29.052 4.82823 29.1562 4.82823C29.4216 4.82823 29.6812 4.93146 29.8729 5.12416C30.1442 5.39551 30.2396 5.79466 30.1206 6.15744L28.9006 9.8816L32.8096 10.1805C33.189 10.209 33.5223 10.4508 33.6678 10.8038C33.8133 11.1558 33.7504 11.5618 33.5017 11.8518L30.9494 14.8249L34.4435 16.5945C34.7857 16.7685 35 17.1185 35 17.5C35 17.8815 34.7857 18.2315 34.4445 18.4055L30.9504 20.1751L33.5027 23.1482C33.7514 23.4382 33.8143 23.8423 33.6688 24.1972C33.5233 24.5492 33.19 24.79 32.8076 24.8205L28.9015 25.1164L30.1216 28.8406C30.2406 29.2053 30.1452 29.6045 29.8739 29.8739C29.6822 30.0676 29.4216 30.1718 29.1572 30.1718C29.053 30.1718 28.9448 30.1551 28.8416 30.1216L25.1204 28.9015L24.8225 32.8076C24.792 33.19 24.5521 33.5233 24.1992 33.6688C24.0723 33.7209 23.9416 33.7455 23.8098 33.7455C23.5739 33.7455 23.3379 33.661 23.1501 33.5027L20.1771 30.9504L18.4055 34.4445C18.2324 34.7857 17.8815 35 17.5 35Z" fill="#F4900C"/>
<path d="M30.2809 17.5C30.2809 24.558 24.558 30.2809 17.5 30.2809C10.442 30.2809 4.71912 24.559 4.71912 17.5C4.71912 10.441 10.442 4.71909 17.5 4.71909C24.558 4.71909 30.2809 10.442 30.2809 17.5Z" fill="#FFCC4D"/>
<path d="M17.8662 23.2777C11.749 23.2777 10.001 20.9889 10.001 22.0704C10.001 23.1538 13.4971 25.9833 17.8662 25.9833C22.2353 25.9833 25.7313 23.1528 25.7313 22.0704C25.7313 20.9889 23.9843 23.2777 17.8662 23.2777ZM25.7313 14.6221C25.7313 16.0702 24.5574 17.2441 23.1093 17.2441C21.6621 17.2441 20.4882 16.0702 20.4882 14.6221C20.4882 13.1739 21.6621 12 23.1093 12C24.5574 12 25.7313 13.1729 25.7313 14.6221ZM15.2441 14.6221C15.2441 16.0702 14.0692 17.2441 12.6221 17.2441C11.1749 17.2441 10 16.0702 10 14.6221C10 13.1739 11.1758 12 12.623 12C14.0702 12 15.2441 13.1729 15.2441 14.6221Z" fill="#F4900C"/>
</svg>
