<svg width="21" height="21" viewBox="0 0 24 24" fill="none" xmlns="http://www.w3.org/2000/svg">
<path d="M9.86549 3.51225C10.7925 1.83075 13.209 1.8315 14.1352 3.51225L22.1917 18.1372C23.0872 19.7602 21.912 21.75 20.0572 21.75H3.93749C2.08199 21.75 0.907489 19.7602 1.80299 18.1357L9.86549 3.51225ZM12.8212 4.23675C12.7403 4.08976 12.6214 3.96719 12.477 3.88182C12.3325 3.79645 12.1678 3.75141 12 3.75141C11.8322 3.75141 11.6675 3.79645 11.523 3.88182C11.3786 3.96719 11.2597 4.08976 11.1787 4.23675L3.11774 18.8595C3.03897 19.0022 2.99878 19.163 3.00113 19.326C3.00347 19.489 3.04828 19.6485 3.13112 19.7889C3.21396 19.9293 3.33197 20.0457 3.47351 20.1265C3.61505 20.2074 3.77523 20.2499 3.93824 20.25H20.0572C20.2202 20.25 20.3804 20.2075 20.5219 20.1268C20.6634 20.046 20.7815 19.9297 20.8644 19.7894C20.9473 19.6491 20.9922 19.4897 20.9947 19.3267C20.9971 19.1638 20.9571 19.003 20.8785 18.8602L12.8205 4.2375L12.8212 4.23675Z" fill="white"/>
</svg>
